<?xml version="1.0" encoding="UTF-8"?>
<svg xmlns="http://www.w3.org/2000/svg" xmlns:xlink="http://www.w3.org/1999/xlink" width="50pt" height="50pt" viewBox="0 0 50 50" version="1.1">
<g id="surface1">
<path style=" stroke:none;fill-rule:nonzero;fill:rgb(0%,0%,0%);fill-opacity:1;" d="M 42.613281 1.894531 C 42.40625 1.691406 42.132812 1.578125 41.84375 1.582031 C 41.558594 1.585938 41.28125 1.695312 41.078125 1.894531 L 25.535156 17.4375 C 25.511719 17.472656 25.480469 17.503906 25.457031 17.535156 C 25.457031 17.546875 25.445312 17.546875 25.445312 17.558594 C 25.425781 17.589844 25.414062 17.613281 25.394531 17.644531 C 25.382812 17.65625 25.382812 17.664062 25.371094 17.675781 C 25.359375 17.707031 25.351562 17.730469 25.339844 17.761719 C 25.339844 17.773438 25.328125 17.773438 25.328125 17.785156 L 22.570312 26.097656 C 22.441406 26.484375 22.539062 26.914062 22.832031 27.199219 C 23.035156 27.402344 23.3125 27.511719 23.597656 27.511719 C 23.714844 27.511719 23.832031 27.492188 23.945312 27.457031 L 32.234375 24.691406 C 32.246094 24.691406 32.246094 24.691406 32.257812 24.679688 C 32.289062 24.671875 32.324219 24.65625 32.355469 24.636719 C 32.363281 24.636719 32.371094 24.632812 32.375 24.625 C 32.40625 24.605469 32.449219 24.582031 32.484375 24.5625 C 32.515625 24.539062 32.546875 24.507812 32.582031 24.484375 C 32.589844 24.476562 32.601562 24.476562 32.601562 24.464844 C 32.613281 24.453125 32.632812 24.441406 32.644531 24.421875 L 48.132812 8.933594 C 48.335938 8.730469 48.449219 8.457031 48.449219 8.171875 C 48.449219 7.882812 48.335938 7.609375 48.132812 7.40625 Z M 26.832031 20.140625 L 29.890625 23.199219 L 25.304688 24.722656 Z M 31.890625 22.140625 L 27.890625 18.140625 L 41.84375 4.1875 L 45.84375 8.1875 Z M 31.890625 22.140625 "/>
<path style=" stroke:none;fill-rule:nonzero;fill:rgb(0%,0%,0%);fill-opacity:1;" d="M 40.058594 21.785156 C 39.464844 21.785156 38.980469 22.269531 38.980469 22.863281 L 38.980469 43.066406 C 38.972656 44.855469 37.527344 46.304688 35.738281 46.308594 L 6.964844 46.308594 C 5.175781 46.304688 3.726562 44.855469 3.722656 43.066406 L 3.722656 14.292969 C 3.726562 12.503906 5.175781 11.054688 6.964844 11.050781 L 27.164062 11.050781 C 27.761719 11.050781 28.246094 10.566406 28.246094 9.96875 C 28.246094 9.371094 27.761719 8.890625 27.164062 8.890625 L 6.964844 8.890625 C 3.980469 8.890625 1.5625 11.308594 1.558594 14.292969 L 1.558594 43.066406 C 1.5625 46.050781 3.980469 48.46875 6.964844 48.472656 L 35.738281 48.472656 C 38.722656 48.46875 41.140625 46.050781 41.140625 43.066406 L 41.140625 22.863281 C 41.140625 22.269531 40.65625 21.785156 40.058594 21.785156 Z M 40.058594 21.785156 "/>
</g>
</svg>
